<svg width="23" height="68" viewBox="0 0 23 68" fill="none" xmlns="http://www.w3.org/2000/svg">
<line y1="34.5" x2="23" y2="34.5" stroke="#FFBB00" stroke-width="3"/>
<path d="M11.408 26.192C10.688 26.192 10.096 25.984 9.632 25.568C9.184 25.136 8.96 24.608 8.96 23.984C8.96 23.344 9.184 22.808 9.632 22.376C10.096 21.944 10.688 21.728 11.408 21.728C12.112 21.728 12.688 21.944 13.136 22.376C13.6 22.808 13.832 23.344 13.832 23.984C13.832 24.608 13.6 25.136 13.136 25.568C12.688 25.984 12.112 26.192 11.408 26.192Z" fill="#FFBB00"/>
<path d="M11.592 41.808C12.312 41.808 12.904 42.016 13.368 42.432C13.816 42.864 14.04 43.392 14.04 44.016C14.04 44.656 13.816 45.192 13.368 45.624C12.904 46.056 12.312 46.272 11.592 46.272C10.888 46.272 10.312 46.056 9.864 45.624C9.4 45.192 9.168 44.656 9.168 44.016C9.168 43.392 9.4 42.864 9.864 42.432C10.312 42.016 10.888 41.808 11.592 41.808Z" fill="#FFBB00"/>
</svg>
